<?xml version="1.0" encoding="utf-8"?>
<!-- Generator: Adobe Illustrator 24.0.0, SVG Export Plug-In . SVG Version: 6.00 Build 0)  -->
<svg version="1.1" id="Layer_1" xmlns="http://www.w3.org/2000/svg" xmlns:xlink="http://www.w3.org/1999/xlink" x="0px" y="0px"
	 viewBox="0 0 841.9 595.3" style="enable-background:new 0 0 841.9 595.3;" xml:space="preserve">
<style type="text/css">
	.st0{fill:#60BB4E;}
</style>
<g>
	<g>
		<path class="st0" d="M378.8,130.2l0-0.3l-4.4-83.6l0.2-0.1l84.3-27.4l0.1,0.1l79.9,59.3l-0.5,0.1L378.8,130.2z M374.9,46.6
			l4.3,82.9L537.9,78l-79-58.7L374.9,46.6z"/>
	</g>
	<g>
		<path class="st0" d="M465.3,187.6l0-0.3l-4.3-81.7l0.2-0.1l77.6-25.2l0,0.3l4.3,81.7l-0.2,0.1L465.3,187.6z M461.5,105.9l4.2,81
			l76.8-24.9l-4.2-81L461.5,105.9z"/>
	</g>
	<g>
		<path class="st0" d="M302.7,313.7l0-0.3l-7.9-151.1l0-0.1l77.7-113.8l0,0.7L385,287l-0.2,0.1L302.7,313.7z M295.3,162.5l7.9,150.6
			l81.3-26.4L372.1,50L295.3,162.5z"/>
	</g>
	<g>
		<path class="st0" d="M383.8,380l-0.1-0.1l-81.2-64.1l0.4-0.1l154.7-50.3l0,0.3l4.7,88.8l-0.2,0.1L383.8,380z M303.6,316l80.4,63.4
			l77.9-25.3l-4.6-88L303.6,316z"/>
	</g>
	<g>
		<path class="st0" d="M388,576.5l-0.1-0.1L308,517.1l0.5-0.1l159.7-51.9l0,0.3l4.4,83.6l-0.2,0.1L388,576.5z M309.1,517.3l79,58.7
			l83.9-27.3l-4.3-82.9L309.1,517.3z"/>
	</g>
	<g>
		<path class="st0" d="M308.2,515l0-0.3l-4.3-81.7l0.2-0.1l77.6-25.2l0,0.3l4.3,81.7l-0.2,0.1L308.2,515z M304.4,433.3l4.2,81
			l76.8-24.9l-4.2-81L304.4,433.3z"/>
	</g>
	<g>
		<path class="st0" d="M474.4,547.7l0-0.7l-14.8-282.7l81,52.8l0,0.1l6.6,125.2l0,0.1L474.4,547.7z M460.1,265.3l14.7,280.9
			l71.8-103.9l-6.5-124.9L460.1,265.3z"/>
	</g>
</g>
</svg>
