<?xml version="1.0" encoding="utf-8"?>
<!-- Generator: Adobe Illustrator 24.0.0, SVG Export Plug-In . SVG Version: 6.00 Build 0)  -->
<svg version="1.1" id="Layer_1" xmlns="http://www.w3.org/2000/svg" xmlns:xlink="http://www.w3.org/1999/xlink" x="0px" y="0px"
	 viewBox="0 0 841.9 595.3" style="enable-background:new 0 0 841.9 595.3;" xml:space="preserve">
<style type="text/css">
	.st0{fill:#6D6E71;}
	.st1{opacity:0.92;}
	.st2{fill:#5F7E8C;}
	.st3{fill:#809BA9;}
	.st4{opacity:0.2;}
	.st5{fill:#FFFFFF;}
	.st6{fill:#808285;}
</style>
<g>
	<g>
		<path class="st0" d="M317.6,386.5v18.7h-3.9v-45.9h15.6c4.8,0,8.5,1.2,11.3,3.7c2.8,2.4,4.1,5.8,4.1,10c0,4.3-1.3,7.6-4,10
			c-2.7,2.3-6.5,3.5-11.5,3.5H317.6z M317.6,383.3h11.7c3.8,0,6.6-0.9,8.6-2.7c2-1.8,3-4.3,3-7.5c0-3.2-1-5.7-2.9-7.6
			c-2-1.9-4.8-2.8-8.4-2.9h-12V383.3z"/>
		<path class="st0" d="M373.9,392.3h-20.8l-4.7,12.9h-4.1l17.4-45.9h3.7l17.4,45.9h-4L373.9,392.3z M354.3,389.1h18.4l-9.2-25
			L354.3,389.1z"/>
		<path class="st0" d="M393.3,386.5v18.7h-3.9v-45.9H405c4.8,0,8.5,1.2,11.3,3.7c2.8,2.4,4.1,5.8,4.1,10c0,4.3-1.3,7.6-4,10
			c-2.7,2.3-6.5,3.5-11.5,3.5H393.3z M393.3,383.3H405c3.8,0,6.6-0.9,8.6-2.7c2-1.8,3-4.3,3-7.5c0-3.2-1-5.7-2.9-7.6
			c-2-1.9-4.8-2.8-8.4-2.9h-12V383.3z"/>
		<path class="st0" d="M454.5,383.2H433v18.7h24.7v3.3h-28.5v-45.9h28.4v3.3H433V380h21.5V383.2z"/>
		<path class="st0" d="M483,386.1h-13.3v19.1h-3.9v-45.9h14.9c4.9,0,8.7,1.2,11.5,3.6c2.8,2.4,4.1,5.7,4.1,9.9
			c0,2.9-0.9,5.5-2.6,7.8c-1.7,2.2-4,3.8-6.9,4.7l11.5,19.5v0.4h-4.1L483,386.1z M469.6,382.8h11.9c3.3,0,5.9-0.9,7.8-2.8
			c2-1.9,3-4.2,3-7.2c0-3.2-1-5.8-3.1-7.5c-2.1-1.8-4.9-2.7-8.7-2.7h-10.9V382.8z"/>
		<path class="st0" d="M529.4,380.2c-1.8-2.2-3.2-4.2-4-5.9c-0.8-1.7-1.2-3.4-1.2-5.2c0-3.2,1-5.8,2.9-7.6c1.9-1.9,4.5-2.8,7.7-2.8
			c2.9,0,5.3,0.8,7.1,2.5c1.8,1.7,2.7,3.8,2.7,6.4c0,3-1.7,6-5.2,8.9l-5,3.9l12.6,14.7c1.9-3.1,2.9-6.6,2.9-10.5h3.5
			c0,5.2-1.3,9.6-4,13.2l6.3,7.3h-4.5l-4-4.6c-1.7,1.6-3.6,2.9-5.7,3.8s-4.5,1.4-6.9,1.4c-4.4,0-7.8-1.1-10.4-3.4
			c-2.6-2.2-3.8-5.2-3.8-9c0-2.2,0.7-4.3,2-6.3c1.3-2,3.6-4.2,6.9-6.7L529.4,380.2z M534.3,402.7c1.9,0,3.8-0.4,5.6-1.2
			c1.8-0.8,3.4-2,4.8-3.4l-12.8-14.9l-0.4-0.5l-1.4,1.1c-4.1,3.4-6.2,6.6-6.2,9.8c0,2.8,0.9,5,2.8,6.6
			C528.6,401.8,531.1,402.7,534.3,402.7z M528,369c0,2.6,1.4,5.6,4.3,9.1l4.1-3.2c1.3-1,2.4-2,3.3-3.2c0.9-1.2,1.3-2.5,1.3-4.1
			c0-1.6-0.6-3-1.7-4.1s-2.6-1.7-4.5-1.7c-2.1,0-3.7,0.7-4.9,2C528.6,365.3,528,367,528,369z"/>
		<path class="st0" d="M577.9,405.2v-45.9h13.5c4.9,0,8.6,1,11.2,3c2.5,2,3.8,5,3.8,9c0,2.4-0.6,4.4-1.9,6.2c-1.3,1.8-3.1,3-5.3,3.8
			c2.7,0.6,4.8,1.9,6.4,3.9c1.6,2,2.4,4.4,2.4,7.1c0,4.1-1.3,7.2-3.9,9.5c-2.6,2.3-6.3,3.4-10.9,3.4H577.9z M581.7,379.9h10.6
			c3.2-0.1,5.7-0.8,7.5-2.3c1.8-1.5,2.7-3.6,2.7-6.4c0-2.9-0.9-5.1-2.8-6.5c-1.8-1.4-4.6-2.1-8.3-2.1h-9.7V379.9z M581.7,383.2v18.7
			h11.6c3.3,0,5.9-0.8,7.9-2.5s2.9-4,2.9-7c0-2.8-0.9-5.1-2.8-6.7c-1.9-1.6-4.4-2.5-7.7-2.5H581.7z"/>
		<path class="st0" d="M651.3,384.8c0,4.2-0.7,7.9-2.2,11.1c-1.5,3.2-3.5,5.6-6.3,7.4c-2.7,1.7-5.8,2.6-9.4,2.6
			c-5.4,0-9.7-1.9-13-5.7c-3.3-3.8-4.9-9-4.9-15.5v-4.7c0-4.2,0.7-7.9,2.2-11.1c1.5-3.2,3.6-5.7,6.3-7.4c2.7-1.7,5.8-2.6,9.4-2.6
			s6.6,0.9,9.3,2.6c2.7,1.7,4.8,4.1,6.3,7.2c1.5,3.1,2.2,6.7,2.3,10.8V384.8z M647.4,379.8c0-5.5-1.3-9.8-3.7-13s-5.9-4.7-10.3-4.7
			c-4.3,0-7.7,1.6-10.2,4.7c-2.5,3.1-3.8,7.5-3.8,13.2v4.8c0,5.4,1.3,9.8,3.8,12.9c2.5,3.2,5.9,4.8,10.3,4.8c4.4,0,7.8-1.6,10.3-4.7
			c2.5-3.1,3.7-7.5,3.7-13.1V379.8z"/>
		<path class="st0" d="M685.1,392.3h-20.8l-4.7,12.9h-4.1l17.4-45.9h3.7l17.4,45.9h-4L685.1,392.3z M665.5,389.1h18.4l-9.2-25
			L665.5,389.1z"/>
		<path class="st0" d="M717.8,386.1h-13.3v19.1h-3.9v-45.9h14.9c4.9,0,8.7,1.2,11.5,3.6c2.8,2.4,4.1,5.7,4.1,9.9
			c0,2.9-0.9,5.5-2.6,7.8c-1.7,2.2-4,3.8-6.9,4.7l11.5,19.5v0.4h-4.1L717.8,386.1z M704.5,382.8h11.9c3.3,0,5.9-0.9,7.8-2.8
			c2-1.9,3-4.2,3-7.2c0-3.2-1-5.8-3.1-7.5c-2.1-1.8-4.9-2.7-8.7-2.7h-10.9V382.8z"/>
		<path class="st0" d="M741.6,405.2v-45.9h12.8c3.8,0,7.1,0.9,10.1,2.6s5.3,4.2,7,7.4c1.7,3.2,2.5,6.8,2.5,10.9v4.2
			c0,4.1-0.8,7.7-2.5,10.9s-4,5.6-7,7.3s-6.5,2.6-10.4,2.6H741.6z M745.5,362.6v39.3h8.7c4.8,0,8.7-1.6,11.6-4.8
			c2.9-3.2,4.4-7.5,4.4-13v-4c0-5.3-1.4-9.5-4.3-12.7c-2.9-3.2-6.7-4.8-11.4-4.8H745.5z"/>
	</g>
</g>
<g>
	<path d="M332.6,297.1h-40.3v41.7h-21V236.9h66.4v17h-45.4v26.3h40.3V297.1z"/>
	<path d="M411.1,297.1h-40.3v41.7h-21V236.9h66.4v17h-45.4v26.3h40.3V297.1z"/>
	<path d="M512.1,290.1c0,10-1.8,18.8-5.3,26.4c-3.5,7.6-8.6,13.4-15.2,17.5c-6.6,4.1-14.2,6.2-22.7,6.2c-8.4,0-16-2-22.6-6.1
		c-6.6-4.1-11.8-9.9-15.4-17.4c-3.6-7.5-5.5-16.2-5.5-26v-5c0-10,1.8-18.9,5.4-26.5c3.6-7.6,8.7-13.5,15.3-17.6
		c6.6-4.1,14.2-6.1,22.6-6.1c8.5,0,16,2,22.6,6.1c6.6,4.1,11.7,9.9,15.3,17.6c3.6,7.6,5.4,16.4,5.4,26.4V290.1z M490.8,285.5
		c0-10.7-1.9-18.8-5.7-24.4c-3.8-5.6-9.3-8.3-16.4-8.3c-7,0-12.5,2.7-16.3,8.2c-3.8,5.5-5.8,13.5-5.8,24.1v5
		c0,10.4,1.9,18.5,5.7,24.2c3.8,5.7,9.3,8.6,16.5,8.6c7,0,12.5-2.8,16.2-8.3s5.7-13.6,5.7-24.2V285.5z"/>
	<path d="M604.5,236.9V304c0,11.2-3.5,20-10.5,26.5c-7,6.5-16.5,9.7-28.6,9.7c-11.9,0-21.4-3.2-28.4-9.5c-7-6.3-10.6-15-10.7-26
		v-67.9h21v67.3c0,6.7,1.6,11.5,4.8,14.6c3.2,3.1,7.6,4.6,13.3,4.6c11.8,0,17.8-6.2,18-18.6v-67.8H604.5z"/>
	<path d="M659.4,301.5h-16.7v37.3h-21V236.9h37.9c12,0,21.3,2.7,27.9,8.1c6.5,5.4,9.8,13,9.8,22.8c0,7-1.5,12.8-4.5,17.4
		c-3,4.6-7.6,8.3-13.7,11.1l22.1,41.7v1h-22.5L659.4,301.5z M642.7,284.5h16.9c5.3,0,9.4-1.3,12.3-4c2.9-2.7,4.3-6.4,4.3-11.1
		c0-4.8-1.4-8.6-4.1-11.3c-2.7-2.8-6.9-4.1-12.6-4.1h-16.9V284.5z"/>
	<path d="M745,282.8l21.2-45.9h23l-33.5,65v37h-21.4v-37l-33.5-65h23L745,282.8z"/>
</g>
<g class="st1">
	<polygon points="147.9,185.1 54.2,215.6 51.6,166.5 101.1,150.4 	"/>
	<polygon points="150.5,234.6 105,249.4 102.5,201.4 148,186.6 	"/>
	<polygon points="57.5,307.9 9.4,323.6 4.7,234.7 50.2,168.2 	"/>
	<polygon points="100.3,295.5 103,347.7 57,362.6 9.5,325.1 	"/>
	<polygon points="12.7,443.5 106.4,413 109,462.1 59.5,478.2 	"/>
	<polygon points="10.1,394 55.6,379.2 58.1,427.2 12.6,442 	"/>
	<polygon points="101.7,295 149,325.8 152.9,399.5 110.4,461 	"/>
</g>
<g>
	<polygon class="st2" points="143.2,181.9 49.4,212.3 46.9,163.3 96.4,147.2 	"/>
	<polygon class="st3" points="145.8,231.3 100.3,246.1 97.8,198.1 143.3,183.4 	"/>
	<polygon class="st3" points="52.8,304.7 4.7,320.3 0,231.5 45.5,164.9 	"/>
	<polygon class="st3" points="95.6,292.3 98.3,344.4 52.3,359.3 4.7,321.8 	"/>
	<polygon class="st2" points="8,440.2 101.7,409.7 104.3,458.8 54.7,474.9 	"/>
	<polygon class="st3" points="5.4,390.7 50.8,376 53.3,423.9 7.9,438.7 	"/>
	<polygon class="st3" points="97,291.7 144.3,322.6 148.2,396.2 105.7,457.7 	"/>
</g>
<g>
	<path class="st3" d="M331.6,295h-40.3v41.7h-21V234.8h66.4v17h-45.4v26.3h40.3V295z"/>
	<path class="st3" d="M410.1,295h-40.3v41.7h-21V234.8h66.4v17h-45.4v26.3h40.3V295z"/>
	<path class="st3" d="M511.1,288c0,10-1.8,18.8-5.3,26.4c-3.5,7.6-8.6,13.4-15.2,17.5c-6.6,4.1-14.2,6.2-22.7,6.2
		c-8.4,0-16-2-22.6-6.1c-6.6-4.1-11.8-9.9-15.4-17.4c-3.6-7.5-5.5-16.2-5.5-26v-5c0-10,1.8-18.9,5.4-26.5
		c3.6-7.6,8.7-13.5,15.3-17.6c6.6-4.1,14.2-6.1,22.6-6.1c8.5,0,16,2,22.6,6.1c6.6,4.1,11.7,9.9,15.3,17.6c3.6,7.6,5.4,16.4,5.4,26.4
		V288z M489.8,283.4c0-10.7-1.9-18.8-5.7-24.4c-3.8-5.6-9.3-8.3-16.4-8.3c-7,0-12.5,2.7-16.3,8.2c-3.8,5.5-5.8,13.5-5.8,24.1v5
		c0,10.4,1.9,18.5,5.7,24.2c3.8,5.7,9.3,8.6,16.5,8.6c7,0,12.5-2.8,16.2-8.3c3.8-5.5,5.7-13.6,5.7-24.2V283.4z"/>
	<path class="st3" d="M603.5,234.8v67.1c0,11.2-3.5,20-10.5,26.5c-7,6.5-16.5,9.7-28.6,9.7c-11.9,0-21.4-3.2-28.4-9.5
		c-7-6.3-10.6-15-10.7-26v-67.9h21V302c0,6.7,1.6,11.5,4.8,14.6c3.2,3.1,7.6,4.6,13.3,4.6c11.8,0,17.8-6.2,18-18.6v-67.8H603.5z"/>
	<path class="st3" d="M658.4,299.4h-16.7v37.3h-21V234.8h37.9c12,0,21.3,2.7,27.9,8.1c6.5,5.4,9.8,13,9.8,22.8
		c0,7-1.5,12.8-4.5,17.4c-3,4.6-7.6,8.3-13.7,11.1l22.1,41.7v1h-22.5L658.4,299.4z M641.7,282.4h16.9c5.3,0,9.4-1.3,12.3-4
		c2.9-2.7,4.3-6.4,4.3-11.1c0-4.8-1.4-8.6-4.1-11.3c-2.7-2.8-6.9-4.1-12.6-4.1h-16.9V282.4z"/>
	<path class="st3" d="M744,280.7l21.2-45.9h23l-33.5,65v37h-21.4v-37l-33.5-65h23L744,280.7z"/>
</g>
<path class="st3" d="M163.9,334.4l-0.6,1.3h22.7l1.1-3.2L163.9,334.4z M260.2,334.6l-23.2-1.7l1,2.8h22.8L260.2,334.6z"/>
<polygon class="st3" points="198.5,233.8 191.9,251.7 225.4,233.8 "/>
<g>
	<g>
		<path class="st3" d="M316.6,386v18.7h-3.9v-45.9h15.6c4.8,0,8.5,1.2,11.3,3.7c2.8,2.4,4.1,5.8,4.1,10c0,4.3-1.3,7.6-4,10
			c-2.7,2.3-6.5,3.5-11.5,3.5H316.6z M316.6,382.8h11.7c3.8,0,6.6-0.9,8.6-2.7c2-1.8,3-4.3,3-7.5c0-3.2-1-5.7-2.9-7.6
			c-2-1.9-4.8-2.8-8.4-2.9h-12V382.8z"/>
		<path class="st3" d="M372.9,391.8h-20.8l-4.7,12.9h-4.1l17.4-45.9h3.7l17.4,45.9h-4L372.9,391.8z M353.3,388.5h18.4l-9.2-25
			L353.3,388.5z"/>
		<path class="st3" d="M392.3,386v18.7h-3.9v-45.9H404c4.8,0,8.5,1.2,11.3,3.7c2.8,2.4,4.1,5.8,4.1,10c0,4.3-1.3,7.6-4,10
			c-2.7,2.3-6.5,3.5-11.5,3.5H392.3z M392.3,382.8H404c3.8,0,6.6-0.9,8.6-2.7c2-1.8,3-4.3,3-7.5c0-3.2-1-5.7-2.9-7.6
			c-2-1.9-4.8-2.8-8.4-2.9h-12V382.8z"/>
		<path class="st3" d="M453.5,382.7H432v18.7h24.7v3.3h-28.5v-45.9h28.4v3.3H432v17.3h21.5V382.7z"/>
		<path class="st3" d="M482,385.6h-13.3v19.1h-3.9v-45.9h14.9c4.9,0,8.7,1.2,11.5,3.6c2.8,2.4,4.1,5.7,4.1,9.9
			c0,2.9-0.9,5.5-2.6,7.8c-1.7,2.2-4,3.8-6.9,4.7l11.5,19.5v0.4h-4.1L482,385.6z M468.6,382.3h11.9c3.3,0,5.9-0.9,7.8-2.8
			c2-1.9,3-4.2,3-7.2c0-3.2-1-5.8-3.1-7.5c-2.1-1.8-4.9-2.7-8.7-2.7h-10.9V382.3z"/>
		<path class="st3" d="M528.4,379.7c-1.8-2.2-3.2-4.2-4-5.9c-0.8-1.7-1.2-3.4-1.2-5.2c0-3.2,1-5.8,2.9-7.6c1.9-1.9,4.5-2.8,7.7-2.8
			c2.9,0,5.3,0.8,7.1,2.5c1.8,1.7,2.7,3.8,2.7,6.4c0,3-1.7,6-5.2,8.9l-5,3.9l12.6,14.7c1.9-3.1,2.9-6.6,2.9-10.5h3.5
			c0,5.2-1.3,9.6-4,13.2l6.3,7.3h-4.5l-4-4.6c-1.7,1.6-3.6,2.9-5.7,3.8s-4.5,1.4-6.9,1.4c-4.4,0-7.8-1.1-10.4-3.4
			c-2.6-2.2-3.8-5.2-3.8-9c0-2.2,0.7-4.3,2-6.3c1.3-2,3.6-4.2,6.9-6.7L528.4,379.7z M533.3,402.2c1.9,0,3.8-0.4,5.6-1.2
			c1.8-0.8,3.4-2,4.8-3.4l-12.8-14.9l-0.4-0.5l-1.4,1.1c-4.1,3.4-6.2,6.6-6.2,9.8c0,2.8,0.9,5,2.8,6.6
			C527.6,401.3,530.1,402.2,533.3,402.2z M527,368.5c0,2.6,1.4,5.6,4.3,9.1l4.1-3.2c1.3-1,2.4-2,3.3-3.2c0.9-1.2,1.3-2.5,1.3-4.1
			c0-1.6-0.6-3-1.7-4.1s-2.6-1.7-4.5-1.7c-2.1,0-3.7,0.7-4.9,2C527.6,364.7,527,366.4,527,368.5z"/>
		<path class="st3" d="M576.9,404.7v-45.9h13.5c4.9,0,8.6,1,11.2,3c2.5,2,3.8,5,3.8,9c0,2.4-0.6,4.4-1.9,6.2c-1.3,1.8-3.1,3-5.3,3.8
			c2.7,0.6,4.8,1.9,6.4,3.9c1.6,2,2.4,4.4,2.4,7.1c0,4.1-1.3,7.2-3.9,9.5c-2.6,2.3-6.3,3.4-10.9,3.4H576.9z M580.7,379.4h10.6
			c3.2-0.1,5.7-0.8,7.5-2.3c1.8-1.5,2.7-3.6,2.7-6.4c0-2.9-0.9-5.1-2.8-6.5c-1.8-1.4-4.6-2.1-8.3-2.1h-9.7V379.4z M580.7,382.7v18.7
			h11.6c3.3,0,5.9-0.8,7.9-2.5s2.9-4,2.9-7c0-2.8-0.9-5.1-2.8-6.7c-1.9-1.6-4.4-2.5-7.7-2.5H580.7z"/>
		<path class="st3" d="M650.3,384.3c0,4.2-0.7,7.9-2.2,11.1c-1.5,3.2-3.5,5.6-6.3,7.4c-2.7,1.7-5.8,2.6-9.4,2.6
			c-5.4,0-9.7-1.9-13-5.7c-3.3-3.8-4.9-9-4.9-15.5v-4.7c0-4.2,0.7-7.9,2.2-11.1s3.6-5.7,6.3-7.4c2.7-1.7,5.8-2.6,9.4-2.6
			s6.6,0.9,9.3,2.6c2.7,1.7,4.8,4.1,6.3,7.2c1.5,3.1,2.2,6.7,2.3,10.8V384.3z M646.4,379.3c0-5.5-1.3-9.8-3.7-13
			c-2.5-3.1-5.9-4.7-10.3-4.7c-4.3,0-7.7,1.6-10.2,4.7c-2.5,3.1-3.8,7.5-3.8,13.2v4.8c0,5.4,1.3,9.7,3.8,12.9
			c2.5,3.2,5.9,4.8,10.3,4.8c4.4,0,7.8-1.6,10.3-4.7c2.5-3.1,3.7-7.5,3.7-13.1V379.3z"/>
		<path class="st3" d="M684.1,391.8h-20.8l-4.7,12.9h-4.1l17.4-45.9h3.7l17.4,45.9h-4L684.1,391.8z M664.5,388.5h18.4l-9.2-25
			L664.5,388.5z"/>
		<path class="st3" d="M716.8,385.6h-13.3v19.1h-3.9v-45.9h14.9c4.9,0,8.7,1.2,11.5,3.6c2.8,2.4,4.1,5.7,4.1,9.9
			c0,2.9-0.9,5.5-2.6,7.8c-1.7,2.2-4,3.8-6.9,4.7l11.5,19.5v0.4h-4.1L716.8,385.6z M703.5,382.3h11.9c3.3,0,5.9-0.9,7.8-2.8
			c2-1.9,3-4.2,3-7.2c0-3.2-1-5.8-3.1-7.5c-2.1-1.8-4.9-2.7-8.7-2.7h-10.9V382.3z"/>
		<path class="st3" d="M740.6,404.7v-45.9h12.8c3.8,0,7.1,0.9,10.1,2.6c3,1.7,5.3,4.2,7,7.4c1.7,3.2,2.5,6.8,2.5,10.9v4.2
			c0,4.1-0.8,7.7-2.5,10.9s-4,5.6-7,7.3s-6.5,2.6-10.4,2.6H740.6z M744.5,362.1v39.3h8.7c4.8,0,8.7-1.6,11.6-4.8
			c2.9-3.2,4.4-7.5,4.4-13v-4c0-5.3-1.4-9.5-4.3-12.7s-6.7-4.8-11.4-4.8H744.5z"/>
	</g>
</g>
<g>
	<path class="st3" d="M803.6,217c0-3.4,0.8-6.5,2.4-9.5c1.6-2.9,3.7-5.2,6.5-6.9c2.8-1.7,5.8-2.5,9-2.5s6.2,0.8,9,2.5
		c2.8,1.7,5,4,6.5,6.9s2.4,6.1,2.4,9.5c0,3.4-0.8,6.6-2.4,9.5c-1.6,2.9-3.8,5.2-6.5,6.9c-2.8,1.7-5.8,2.5-9,2.5
		c-3.2,0-6.2-0.8-9-2.5c-2.8-1.7-4.9-4-6.5-6.9C804.4,223.6,803.6,220.4,803.6,217z M836.3,217c0-2.8-0.6-5.4-1.9-7.8
		c-1.3-2.4-3-4.3-5.3-5.8s-4.8-2.2-7.6-2.2c-2.7,0-5.2,0.7-7.4,2.1c-2.3,1.4-4.1,3.3-5.4,5.7s-2,5.1-2,7.9s0.7,5.5,2,7.9
		s3.1,4.3,5.4,5.7c2.3,1.4,4.8,2.1,7.5,2.1c2.7,0,5.2-0.7,7.5-2.1c2.3-1.4,4.1-3.4,5.4-5.8C835.6,222.4,836.3,219.8,836.3,217z
		 M817.8,218.9v8.5H814V206h7.1c2.5,0,4.5,0.6,6,1.7c1.5,1.2,2.2,2.8,2.2,4.9c0,1.9-0.9,3.3-2.8,4.4c1,0.5,1.7,1.2,2.2,2.2
		c0.4,0.9,0.6,2.1,0.6,3.5c0,1.4,0,2.4,0.1,2.9c0.1,0.6,0.2,1.1,0.3,1.4v0.4h-3.9c-0.2-0.6-0.3-2.2-0.3-4.9c0-1.3-0.3-2.2-0.8-2.8
		c-0.6-0.6-1.5-0.8-2.8-0.8H817.8z M817.8,215.5h3.4c1.2,0,2.3-0.3,3.1-0.8s1.2-1.2,1.2-2.1c0-1.2-0.3-2-0.9-2.5
		c-0.6-0.5-1.7-0.8-3.2-0.8h-3.6V215.5z"/>
</g>
<path class="st3" d="M239.3,331.6l-60.7-43.2l-16.4,45.2c16.5-1.8,33.2-2.7,50.2-2.7C221.4,330.9,230.4,331.1,239.3,331.6z"/>
<g class="st4">
	<path d="M225.4,233.8l-65.3,39.3l79.6,58.6c7.9,0.5,14.4,1,22.2,1.8L225.4,233.8z"/>
</g>
<g>
	<path class="st5" d="M225.8,233.9l-63.4,39.3l77.3,58.5c7.5,0.4,14.9,1,22.2,1.8L225.8,233.9z"/>
	<path class="st6" d="M262.2,333.6l-0.2,0c-7.3-0.8-14.8-1.4-22.2-1.8l0,0l0,0l-77.5-58.6l0.2-0.1l63.5-39.4L262.2,333.6z
		 M239.8,331.5c7.4,0.4,14.8,1,22,1.8l-36.1-99.3l-63.1,39.1L239.8,331.5z"/>
</g>
</svg>
